<svg version="1.1" id="Layer_1" xmlns="http://www.w3.org/2000/svg" xmlns:xlink="http://www.w3.org/1999/xlink" viewBox="0 0 169.063 169.063" xml:space="preserve" fill="#000000"><g id="SVGRepo_bgCarrier" stroke-width="0"></g><g id="SVGRepo_tracerCarrier" stroke-linecap="round" stroke-linejoin="round"></g><g id="SVGRepo_iconCarrier"> <g> <path style="fill:#FFFFFF;" d="M84.532,0c-23.179,0-26.148,0.094-35.31,0.511c-9.158,0.419-15.421,1.845-20.911,3.951 c-5.675,2.203-10.483,5.146-15.276,9.938c-4.792,4.792-7.735,9.6-9.938,15.276c-2.107,5.49-3.533,11.753-3.951,20.911 C0.094,59.809,0,62.779,0,85.957s0.094,26.148,0.511,35.31c0.419,9.158,1.845,15.421,3.951,20.911 c2.203,5.675,5.146,10.483,9.938,15.276c4.792,4.792,9.6,7.735,15.276,9.938c5.49,2.107,11.753,3.533,20.911,3.951 c9.162,0.417,12.131,0.511,35.31,0.511s26.148-0.094,35.31-0.511c9.158-0.419,15.421-1.845,20.911-3.951 c5.675-2.203,10.483-5.146,15.276-9.938c4.792-4.792,7.735-9.6,9.938-15.276c2.107-5.49,3.533-11.753,3.951-20.911 c0.417-9.162,0.511-12.131,0.511-35.31s-0.094-26.148-0.511-35.31c-0.419-9.158-1.845-15.421-3.951-20.911 c-2.203-5.675-5.146-10.483-9.938-15.276c-4.792-4.792-9.6-7.735-15.276-9.938c-5.49-2.107-11.753-3.533-20.911-3.951 C110.68,0.094,107.711,0,84.532,0L84.532,0z M84.532,15.63c22.987,0,25.73,0.084,34.835,0.5c8.419,0.385,12.987,1.775,16.03,2.951 c4.029,1.565,6.9,3.437,9.926,6.463c3.026,3.026,4.898,5.897,6.463,9.926c1.175,3.043,2.566,7.611,2.951,16.03 c0.416,9.105,0.5,11.848,0.5,34.835s-0.084,25.73-0.5,34.835c-0.385,8.419-1.775,12.987-2.951,16.03 c-1.565,4.029-3.437,6.9-6.463,9.926c-3.026,3.026-5.897,4.898-9.926,6.463c-3.043,1.175-7.611,2.566-16.03,2.951 c-9.105,0.416-11.848,0.5-34.835,0.5s-25.73-0.084-34.835-0.5c-8.419-0.385-12.987-1.775-16.03-2.951 c-4.029-1.565-6.9-3.437-9.926-6.463c-3.026-3.026-4.898-5.897-6.463-9.926c-1.175-3.043-2.566-7.611-2.951-16.03 c-0.416-9.105-0.5-11.848-0.5-34.835s0.084-25.73,0.5-34.835c0.385-8.419,1.775-12.987,2.951-16.03 c1.565-4.029,3.437-6.9,6.463-9.926c3.026-3.026,5.897-4.898,9.926-6.463c3.043-1.175,7.611-2.566,16.03-2.951 C58.802,15.714,61.545,15.63,84.532,15.63L84.532,15.63z M84.532,41.243c-23.978,0-43.475,19.497-43.475,43.475 c0,23.978,19.497,43.475,43.475,43.475s43.475-19.497,43.475-43.475C128.007,60.74,108.51,41.243,84.532,41.243L84.532,41.243z M84.532,56.873c15.341,0,27.845,12.504,27.845,27.845s-12.504,27.845-27.845,27.845s-27.845-12.504-27.845-27.845 S69.191,56.873,84.532,56.873L84.532,56.873z M129.921,36.019c-5.596,0-10.138,4.542-10.138,10.138 s4.542,10.138,10.138,10.138c5.596,0,10.138-4.542,10.138-10.138S135.517,36.019,129.921,36.019L129.921,36.019z"></path> </g> </g></svg>
